<?xml version="1.0" encoding="UTF-8"?>
<svg xmlns="http://www.w3.org/2000/svg" viewBox="0 0 1200 630" width="1200" height="630">
  <defs>
    <linearGradient id="g21958" x1="89.93177550236464%" y1="19.90924884239759%" x2="10.068224497635356%" y2="80.09075115760241%">
      <stop offset="0%" stop-color="#D97706"/>
      <stop offset="100%" stop-color="#B45309"/>
    </linearGradient>
  </defs>
  <rect width="1200" height="630" fill="url(#g21958)"/>
  <circle cx="636.0560055822134" cy="321.53163159731776" r="8" fill="rgba(255,255,255,0.2)"/><ellipse cx="636.0560055822134" cy="321.53163159731776" rx="113.56801591813564" ry="34.15459054522216" fill="none" stroke="rgba(255,255,255,0.12)" stroke-width="1.5" transform="rotate(20.994331834372133 636.0560055822134 321.53163159731776)"/><ellipse cx="636.0560055822134" cy="321.53163159731776" rx="98.37615894153714" ry="45.21583672147244" fill="none" stroke="rgba(255,255,255,0.12)" stroke-width="1.5" transform="rotate(65.37126255920157 636.0560055822134 321.53163159731776)"/><ellipse cx="636.0560055822134" cy="321.53163159731776" rx="118.27573386952281" ry="30.735478824935853" fill="none" stroke="rgba(255,255,255,0.12)" stroke-width="1.5" transform="rotate(128.006577109918 636.0560055822134 321.53163159731776)"/><circle cx="345.8823679355574" cy="80" r="3" fill="rgba(255,255,255,0.15)"/><circle cx="299.0880362798545" cy="80" r="3" fill="rgba(255,255,255,0.10)"/><circle cx="304.0374375123079" cy="105" r="3" fill="rgba(255,255,255,0.15)"/><circle cx="324.06123132366133" cy="105" r="3" fill="rgba(255,255,255,0.10)"/><line x1="304.0374375123079" y1="105" x2="324.06123132366133" y2="105" stroke="rgba(255,255,255,0.08)" stroke-width="1"/><circle cx="306.5178827783817" cy="130" r="3" fill="rgba(255,255,255,0.15)"/><circle cx="348.3512230535701" cy="130" r="3" fill="rgba(255,255,255,0.10)"/><circle cx="293.59092998959954" cy="155" r="3" fill="rgba(255,255,255,0.15)"/><circle cx="355.83955917441756" cy="155" r="3" fill="rgba(255,255,255,0.10)"/><line x1="293.59092998959954" y1="155" x2="355.83955917441756" y2="155" stroke="rgba(255,255,255,0.08)" stroke-width="1"/><circle cx="286.1339472571794" cy="180" r="3" fill="rgba(255,255,255,0.15)"/><circle cx="361.80142255450016" cy="180" r="3" fill="rgba(255,255,255,0.10)"/><circle cx="303.08867352607285" cy="205" r="3" fill="rgba(255,255,255,0.15)"/><circle cx="340.62095186545963" cy="205" r="3" fill="rgba(255,255,255,0.10)"/><line x1="303.08867352607285" y1="205" x2="340.62095186545963" y2="205" stroke="rgba(255,255,255,0.08)" stroke-width="1"/><circle cx="304.8358756752216" cy="230" r="3" fill="rgba(255,255,255,0.15)"/><circle cx="306.76911073274823" cy="230" r="3" fill="rgba(255,255,255,0.10)"/><circle cx="337.90952581843106" cy="255" r="3" fill="rgba(255,255,255,0.15)"/><circle cx="315.3727798557535" cy="255" r="3" fill="rgba(255,255,255,0.10)"/><line x1="337.90952581843106" y1="255" x2="315.3727798557535" y2="255" stroke="rgba(255,255,255,0.08)" stroke-width="1"/><circle cx="357.49605558569596" cy="280" r="3" fill="rgba(255,255,255,0.15)"/><circle cx="283.65595601409063" cy="280" r="3" fill="rgba(255,255,255,0.10)"/><circle cx="361.4321569424158" cy="305" r="3" fill="rgba(255,255,255,0.15)"/><circle cx="283.59259462082673" cy="305" r="3" fill="rgba(255,255,255,0.10)"/><line x1="361.4321569424158" y1="305" x2="283.59259462082673" y2="305" stroke="rgba(255,255,255,0.08)" stroke-width="1"/><circle cx="354.22221429884166" cy="330" r="3" fill="rgba(255,255,255,0.15)"/><circle cx="288.03097906760075" cy="330" r="3" fill="rgba(255,255,255,0.10)"/><circle cx="309.6844852630014" cy="355" r="3" fill="rgba(255,255,255,0.15)"/><circle cx="326.547366015786" cy="355" r="3" fill="rgba(255,255,255,0.10)"/><line x1="309.6844852630014" y1="355" x2="326.547366015786" y2="355" stroke="rgba(255,255,255,0.08)" stroke-width="1"/><circle cx="318.6333263881849" cy="380" r="3" fill="rgba(255,255,255,0.15)"/><circle cx="344.44791557700853" cy="380" r="3" fill="rgba(255,255,255,0.10)"/><circle cx="286.8364845632161" cy="405" r="3" fill="rgba(255,255,255,0.15)"/><circle cx="352.94831509070286" cy="405" r="3" fill="rgba(255,255,255,0.10)"/><line x1="286.8364845632161" y1="405" x2="352.94831509070286" y2="405" stroke="rgba(255,255,255,0.08)" stroke-width="1"/><circle cx="287.28904609399376" cy="430" r="3" fill="rgba(255,255,255,0.15)"/><circle cx="362.00573606043747" cy="430" r="3" fill="rgba(255,255,255,0.10)"/><circle cx="303.6209512046176" cy="455" r="3" fill="rgba(255,255,255,0.15)"/><circle cx="358.6218107966725" cy="455" r="3" fill="rgba(255,255,255,0.10)"/><line x1="303.6209512046176" y1="455" x2="358.6218107966725" y2="455" stroke="rgba(255,255,255,0.08)" stroke-width="1"/><circle cx="306.2206668871469" cy="480" r="3" fill="rgba(255,255,255,0.15)"/><circle cx="316.910752232967" cy="480" r="3" fill="rgba(255,255,255,0.10)"/><circle cx="330.780480023963" cy="505" r="3" fill="rgba(255,255,255,0.15)"/><circle cx="303.7919432829745" cy="505" r="3" fill="rgba(255,255,255,0.10)"/><line x1="330.780480023963" y1="505" x2="303.7919432829745" y2="505" stroke="rgba(255,255,255,0.08)" stroke-width="1"/><circle cx="359.6558821228935" cy="530" r="3" fill="rgba(255,255,255,0.15)"/><circle cx="289.3887338030527" cy="530" r="3" fill="rgba(255,255,255,0.10)"/><path d="M 961.8844042904675 316.0450810007751 L 961.8844042904675 376.0450810007751 L 931.8844042904675 456.0450810007751 A 5 5 0 0 0 936.8844042904675 466.0450810007751 L 1016.8844042904675 466.0450810007751 A 5 5 0 0 0 1021.8844042904675 456.0450810007751 L 991.8844042904675 376.0450810007751 L 991.8844042904675 316.0450810007751 Z" fill="rgba(255,255,255,0.06)" stroke="rgba(255,255,255,0.15)" stroke-width="2"/><polygon points="932.1633517158059,218.11532855790574 932.1633517158059,249.2700427136151 905.1825778093189,264.8473997914698 878.2018039028319,249.2700427136151 878.2018039028319,218.11532855790574 905.1825778093189,202.53797148005106" fill="none" stroke="rgba(255,255,255,0.116981087224558)" stroke-width="1.5"/><polygon points="926.8282527441099,226.86425687978044 926.8282527441099,256.9016196555458 900.815133517608,271.9203010434285 874.8020142911062,256.9016196555458 874.8020142911062,226.86425687978044 900.815133517608,211.84557549189776" fill="none" stroke="rgba(255,255,255,0.1380942925065756)" stroke-width="1.5"/><polygon points="996.5080337702851,134.77043335908093 996.5080337702851,169.94992748252116 966.0416981671005,187.53967454424128 935.575362563916,169.94992748252116 935.575362563916,134.77043335908093 966.0416981671005,117.18068629736081" fill="none" stroke="rgba(255,255,255,0.1311848496971652)" stroke-width="1.5"/>
  <circle cx="437.8868658095598" cy="493.58378337230533" r="1.1622869381681085" fill="rgba(255,255,255,0.06658751894254238)"/><circle cx="481.65995283052325" cy="0.18806251930072904" r="2.8018985162489116" fill="rgba(255,255,255,0.07898279912304133)"/><circle cx="978.7341563031077" cy="328.39816049672663" r="1.181886003818363" fill="rgba(255,255,255,0.03454920835327357)"/><circle cx="254.37719766050577" cy="50.884476522915065" r="2.4623463111929595" fill="rgba(255,255,255,0.0448251257953234)"/><circle cx="64.10596836358309" cy="260.06213759304956" r="2.1665830523706973" fill="rgba(255,255,255,0.04868179001612589)"/><circle cx="675.9720202535391" cy="562.7117644040845" r="1.552773607429117" fill="rgba(255,255,255,0.06568204208277166)"/><circle cx="485.20288970321417" cy="443.5979571333155" r="1.0718870908021927" fill="rgba(255,255,255,0.05250322728650644)"/><circle cx="75.08600419387221" cy="399.8715411359444" r="2.00207087630406" fill="rgba(255,255,255,0.04697534488048405)"/><circle cx="727.1484090015292" cy="190.5012529087253" r="1.0632645240984857" fill="rgba(255,255,255,0.0705688000493683)"/><circle cx="867.4287426285446" cy="150.00823158072308" r="2.76181427994743" fill="rgba(255,255,255,0.05270712712779641)"/><circle cx="1132.6271664351225" cy="324.6702306903899" r="1.0205323258414865" fill="rgba(255,255,255,0.031592131878715006)"/><circle cx="335.5649348348379" cy="290.5849233199842" r="2.6626302860677242" fill="rgba(255,255,255,0.05535495145712048)"/><circle cx="1003.7353310734034" cy="11.177398720756173" r="1.6883724122308195" fill="rgba(255,255,255,0.06738704764982686)"/><circle cx="736.4600761793554" cy="319.02227244805545" r="2.602446300443262" fill="rgba(255,255,255,0.052784555354155605)"/><circle cx="485.20625196397305" cy="395.24652659660205" r="1.327069674152881" fill="rgba(255,255,255,0.06796847446355969)"/><circle cx="838.6611334048212" cy="220.00035300850868" r="1.346859684213996" fill="rgba(255,255,255,0.053304723552428185)"/><circle cx="566.9324641115963" cy="220.6366653344594" r="1.5105511685833335" fill="rgba(255,255,255,0.035199263989925386)"/><circle cx="530.581546202302" cy="358.46533379517496" r="1.5708162225782871" fill="rgba(255,255,255,0.06638986820587889)"/><circle cx="605.768277682364" cy="104.78994442149997" r="2.9379822690971196" fill="rgba(255,255,255,0.07098448102595284)"/><circle cx="118.98379856720567" cy="426.399003805127" r="2.504534895066172" fill="rgba(255,255,255,0.06346160571090878)"/>
  <text x="600" y="335" font-family="system-ui, -apple-system, 'Segoe UI', sans-serif" font-size="68" font-weight="700" fill="rgba(0,0,0,0.15)" text-anchor="middle" letter-spacing="1">AP Chemistry</text>
  <text x="600" y="332" font-family="system-ui, -apple-system, 'Segoe UI', sans-serif" font-size="68" font-weight="700" fill="white" text-anchor="middle" letter-spacing="1">AP Chemistry</text>
  <g transform="translate(1140, 575)">
    <rect x="0" y="0" width="40" height="40" rx="8" fill="rgba(255,255,255,0.15)"/>
    <text x="20" y="29" font-family="sans-serif" font-weight="bold" font-size="24" fill="rgba(255,255,255,0.6)" text-anchor="middle">K</text>
  </g>
</svg>